<svg width="20" height="18" viewBox="0 0 20 18" fill="none" xmlns="http://www.w3.org/2000/svg">
<path d="M0 9.00032C0.000642199 7.9073 0.888161 7.02171 1.98118 7.02042L13.2376 7.0217L10.1949 3.97832C9.37097 3.15374 9.32858 1.85843 10.1018 1.08393C10.8756 0.312653 12.171 0.353111 12.9962 1.17769L19.3514 7.53418C20.1779 8.35812 20.2196 9.65408 19.4451 10.4279C19.4239 10.4466 19.4015 10.4607 19.3809 10.4793C19.3546 10.5069 19.336 10.5397 19.3084 10.5686L13.0379 16.8377C12.2236 17.6507 10.9379 17.6828 10.1647 16.909C9.39087 16.1351 9.42427 14.8488 10.236 14.0345L13.2897 10.9815H1.98118C0.886877 10.9821 0 10.0959 0 9.00032Z" fill="black"/>
</svg>
